<?xml version="1.0" encoding="UTF-8"?>
<!DOCTYPE svg PUBLIC "-//W3C//DTD SVG 1.1//EN" "http://www.w3.org/Graphics/SVG/1.1/DTD/svg11.dtd">
<!-- Creator: CorelDRAW -->
<svg xmlns="http://www.w3.org/2000/svg" xml:space="preserve" width="639px" height="169px" version="1.1" style="shape-rendering:geometricPrecision; text-rendering:geometricPrecision; image-rendering:optimizeQuality; fill-rule:evenodd; clip-rule:evenodd"
viewBox="0 0 918.02 242.98"
 xmlns:xlink="http://www.w3.org/1999/xlink">
 <defs>
  <style type="text/css">
   <![CDATA[
    .str1 {stroke:#DADADB;stroke-width:2.89;stroke-miterlimit:22.9256}
    .str0 {stroke:#DADADB;stroke-width:1.7;stroke-miterlimit:22.9256}
    .fil3 {fill:none}
    .fil1 {fill:#2B2B2A}
    .fil5 {fill:#DADADB;fill-rule:nonzero}
    .fil2 {fill:#2B2B2A;fill-rule:nonzero}
    .fil0 {fill:#2B2B2A;fill-rule:nonzero}
    .fil4 {fill:url(#id0);fill-rule:nonzero}
   ]]>
  </style>
  <linearGradient id="id0" gradientUnits="userSpaceOnUse" x1="667.99" y1="118.5" x2="895.98" y2="118.49">
   <stop offset="0" style="stop-opacity:1; stop-color:#DADADB"/>
   <stop offset="0.509804" style="stop-opacity:1; stop-color:white"/>
   <stop offset="1" style="stop-opacity:1; stop-color:#DADADB"/>
  </linearGradient>
 </defs>
 <g id="__x0023_Layer_x0020_7">
  <metadata id="CorelCorpID_0Corel-Layer"/>
  <path class="fil0" d="M76.36 214.32c1.54,0 3.03,-1.23 3.03,-3.3l0 -0.02c0,-2.09 -1.5,-3.29 -3.03,-3.29 -1.16,0 -1.91,0.65 -2.42,1.41l0 -3.89 -0.95 0 0 8.95 0.95 0 0 -1.21c0.49,0.71 1.25,1.35 2.42,1.35zm-0.17 -0.85c-1.17,0 -2.29,-0.98 -2.29,-2.45l0 -0.02c0,-1.45 1.12,-2.44 2.29,-2.44 1.21,0 2.24,0.95 2.24,2.45l0 0.02c0,1.54 -1.01,2.44 -2.24,2.44zm5.62 2.71c0.96,0 1.57,-0.48 2.11,-1.79l2.66 -6.55 -1.01 0 -2.03 5.29 -2.31 -5.29 -1.04 0 2.88 6.32c-0.38,0.9 -0.73,1.19 -1.3,1.19 -0.4,0 -0.68,-0.07 -0.99,-0.23l-0.32 0.74c0.43,0.21 0.82,0.32 1.35,0.32zm10.1 -2l6.27 0 0 -0.88 -5.3 0 0 -3 4.68 0 0 -0.89 -4.68 0 0 -2.93 5.24 0 0 -0.88 -6.21 0 0 8.58zm8.14 0l0.95 0 0 -8.95 -0.95 0 0 8.95zm3.71 -2.78l5.02 0c0.02,-0.15 0.02,-0.25 0.02,-0.33 0,-1.86 -1.08,-3.36 -2.96,-3.36 -1.75,0 -3.04,1.47 -3.04,3.31 0,1.97 1.42,3.31 3.16,3.31 1.21,0 1.98,-0.48 2.62,-1.19l-0.59 -0.52c-0.52,0.53 -1.13,0.89 -2,0.89 -1.12,0 -2.1,-0.77 -2.23,-2.11zm0 -0.76c0.13,-1.23 0.97,-2.13 2.06,-2.13 1.25,0 1.91,0.98 2.02,2.13l-4.08 0zm9.5 5.53c1.01,0 1.85,-0.28 2.42,-0.84 0.51,-0.52 0.8,-1.27 0.8,-2.25l0 -5.24 -0.94 0 0 1.14c-0.51,-0.68 -1.29,-1.27 -2.48,-1.27 -1.5,0 -2.97,1.14 -2.97,2.99l0 0.03c0,1.82 1.45,2.96 2.97,2.96 1.17,0 1.94,-0.6 2.49,-1.33l0 0.74c0,1.49 -0.9,2.26 -2.3,2.26 -0.91,0 -1.72,-0.28 -2.44,-0.81l-0.43 0.74c0.84,0.59 1.83,0.88 2.88,0.88zm-0.01 -3.31c-1.18,0 -2.2,-0.88 -2.2,-2.16l0 -0.02c0,-1.3 1,-2.14 2.2,-2.14 1.2,0 2.33,0.85 2.33,2.15l0 0.02c0,1.28 -1.13,2.15 -2.33,2.15zm7.23 1.46c1.12,0 1.84,-0.52 2.28,-1.08l0 0.94 0.94 0 0 -3.87c0,-0.81 -0.22,-1.42 -0.67,-1.86 -0.45,-0.46 -1.15,-0.7 -2.04,-0.7 -0.94,0 -1.61,0.22 -2.31,0.54l0.28 0.77c0.59,-0.27 1.18,-0.46 1.93,-0.46 1.19,0 1.87,0.59 1.87,1.72l0 0.2c-0.56,-0.16 -1.13,-0.27 -1.93,-0.27 -1.61,0 -2.71,0.71 -2.71,2.07l0 0.03c0,1.29 1.17,1.97 2.36,1.97zm0.19 -0.76c-0.86,0 -1.6,-0.47 -1.6,-1.26l0 -0.03c0,-0.76 0.68,-1.27 1.85,-1.27 0.78,0 1.39,0.13 1.86,0.27l0 0.58c0,1.01 -0.95,1.71 -2.11,1.71zm5.02 0.62l0.95 0 0 -3.63c0,-1.18 0.81,-1.98 1.9,-1.98 1.11,0 1.75,0.73 1.75,1.91l0 3.7 0.95 0 0 -3.93c0,-1.51 -0.9,-2.54 -2.43,-2.54 -1.09,0 -1.76,0.55 -2.17,1.24l0 -1.11 -0.95 0 0 6.34zm9.68 0.11c0.45,0 0.81,-0.09 1.14,-0.27l0 -0.81c-0.33,0.16 -0.6,0.23 -0.92,0.23 -0.64,0 -1.07,-0.29 -1.07,-1.06l0 -3.7 2.01 0 0 -0.84 -2.01 0 0 -1.91 -0.94 0 0 1.91 -0.88 0 0 0.84 0.88 0 0 3.82c0,1.29 0.77,1.79 1.79,1.79zm6.67 -0.11l0.97 0 0 -3.86 4.95 0 0 3.86 0.97 0 0 -8.58 -0.97 0 0 3.81 -4.95 0 0 -3.81 -0.97 0 0 8.58zm12.05 0.15c1.92,0 3.33,-1.52 3.33,-3.31l0 -0.02c0,-1.79 -1.4,-3.29 -3.3,-3.29 -1.92,0 -3.31,1.52 -3.31,3.31l0 0.02c0,1.8 1.38,3.29 3.28,3.29zm0.03 -0.85c-1.34,0 -2.35,-1.1 -2.35,-2.46l0 -0.02c0,-1.34 0.95,-2.46 2.32,-2.46 1.34,0 2.36,1.12 2.36,2.48l0 0.02c0,1.34 -0.96,2.44 -2.33,2.44zm5 0.7l0.94 0 0 -3.61c0,-1.17 0.76,-2 1.77,-2 1.01,0 1.63,0.7 1.63,1.89l0 3.72 0.93 0 0 -3.65c0,-1.25 0.8,-1.96 1.76,-1.96 1.03,0 1.64,0.68 1.64,1.91l0 3.7 0.94 0 0 -3.92c0,-1.57 -0.89,-2.55 -2.35,-2.55 -1.1,0 -1.78,0.56 -2.23,1.26 -0.35,-0.71 -1.01,-1.26 -2.04,-1.26 -1.06,0 -1.63,0.58 -2.05,1.2l0 -1.07 -0.94 0 0 6.34zm12.23 -2.78l5.02 0c0.01,-0.15 0.01,-0.25 0.01,-0.33 0,-1.86 -1.07,-3.36 -2.95,-3.36 -1.75,0 -3.04,1.47 -3.04,3.31 0,1.97 1.42,3.31 3.16,3.31 1.2,0 1.98,-0.48 2.61,-1.19l-0.59 -0.52c-0.51,0.53 -1.12,0.89 -1.99,0.89 -1.12,0 -2.1,-0.77 -2.23,-2.11zm0 -0.76c0.13,-1.23 0.96,-2.13 2.05,-2.13 1.26,0 1.92,0.98 2.03,2.13l-4.08 0z"/>
  <polygon class="fil1" points="57.48,93.4 191.9,93.4 191.9,94.06 57.48,94.06 "/>
  <polygon class="fil2" points="30.85,177.97 32.79,177.97 32.79,194.42 30.85,194.42 "/>
  <polygon class="fil2" points="234.83,192.42 246.96,179.79 246.96,177.97 232.24,177.97 232.24,179.97 243.93,179.97 232.16,192.52 232.07,192.61 232.07,194.42 247.5,194.42 247.5,192.42 "/>
  <polygon class="fil2" points="3.82,186.73 12.41,186.73 12.41,184.72 3.82,184.72 3.82,179.97 16.17,179.97 16.17,177.97 1.87,177.97 1.87,194.42 16.74,194.42 16.74,192.42 3.82,192.42 "/>
  <path class="fil2" d="M162.51 186.16c0,1 -0.17,1.93 -0.51,2.75 -0.34,0.82 -0.82,1.53 -1.44,2.11 -0.61,0.58 -1.37,1.04 -2.23,1.36 -0.87,0.33 -1.86,0.5 -2.94,0.5 -1.08,0 -2.07,-0.17 -2.93,-0.49 -0.87,-0.31 -1.62,-0.77 -2.24,-1.36 -0.61,-0.58 -1.09,-1.29 -1.42,-2.11 -0.33,-0.83 -0.5,-1.76 -0.5,-2.76 0,-2.06 0.76,-3.75 2.26,-5.04 0.61,-0.52 1.35,-0.94 2.18,-1.24 0.83,-0.3 1.72,-0.45 2.65,-0.45 0.94,0 1.83,0.15 2.66,0.45 0.83,0.3 1.56,0.72 2.18,1.24 1.51,1.3 2.28,3 2.28,5.04zm-0.79 -6.43c-0.81,-0.72 -1.77,-1.28 -2.85,-1.68 -1.07,-0.39 -2.24,-0.58 -3.46,-0.58 -1.23,0 -2.4,0.19 -3.48,0.58 -1.08,0.4 -2.03,0.96 -2.84,1.68 -1.88,1.67 -2.84,3.84 -2.84,6.44 0,2.64 0.95,4.81 2.82,6.47 0.8,0.71 1.75,1.27 2.83,1.66 1.07,0.38 2.26,0.58 3.52,0.58 1.26,0 2.43,-0.2 3.5,-0.58 1.07,-0.39 2.02,-0.95 2.82,-1.66 1.87,-1.66 2.82,-3.83 2.82,-6.47 0,-2.6 -0.96,-4.77 -2.84,-6.44z"/>
  <path class="fil2" d="M52.39 181.1c0.61,-0.52 1.34,-0.94 2.17,-1.23 0.84,-0.29 1.73,-0.44 2.66,-0.44 1.32,0 2.5,0.21 3.5,0.62 0.99,0.41 1.9,1.07 2.69,1.96l0.15 0.17 1.74 -0.74 -0.23 -0.32c-0.84,-1.18 -1.94,-2.09 -3.27,-2.72 -1.32,-0.62 -2.86,-0.93 -4.58,-0.93 -1.23,0 -2.39,0.19 -3.46,0.57 -1.08,0.39 -2.03,0.95 -2.84,1.67 -1.88,1.66 -2.84,3.82 -2.84,6.44 0,1.64 0.36,3.11 1.08,4.38 0.71,1.26 1.74,2.29 3.07,3.04 1.49,0.86 3.24,1.29 5.18,1.29 1.72,0 3.24,-0.29 4.51,-0.85 1.28,-0.56 2.31,-1.4 3.07,-2.47l0.19 -0.26 -1.6 -1.12 -0.18 0.23c-0.7,0.88 -1.55,1.51 -2.55,1.91 -1.01,0.4 -2.23,0.6 -3.63,0.6 -1.06,0 -2.04,-0.17 -2.91,-0.5 -0.87,-0.32 -1.62,-0.79 -2.23,-1.37 -0.62,-0.59 -1.1,-1.3 -1.44,-2.12 -0.34,-0.82 -0.51,-1.74 -0.51,-2.75 0,-2.07 0.76,-3.77 2.26,-5.06z"/>
  <polygon class="fil2" points="202.96,179.97 209.97,179.97 209.97,194.42 211.91,194.42 211.91,179.97 218.92,179.97 218.92,177.97 202.96,177.97 "/>
  <polygon class="fil2" points="183.08,177.97 181.14,177.97 181.14,194.42 194.4,194.42 194.4,192.42 183.08,192.42 "/>
  <polygon class="fil2" points="128.94,184.72 116.73,184.72 116.73,177.97 114.79,177.97 114.79,194.42 116.73,194.42 116.73,186.73 128.94,186.73 128.94,194.42 130.89,194.42 130.89,177.97 128.94,177.97 "/>
  <polygon class="fil2" points="95.82,184.72 83.62,184.72 83.62,177.97 81.67,177.97 81.67,194.42 83.62,194.42 83.62,186.73 95.82,186.73 95.82,194.42 97.77,194.42 97.77,177.97 95.82,177.97 "/>
  <polygon class="fil2" points="129.56,152.67 150.76,152.67 150.76,149.15 133.08,149.15 133.08,143.83 141.92,143.83 141.92,140.31 133.08,140.31 133.08,134.99 150.76,134.99 150.76,131.47 129.56,131.47 129.56,140.31 119.82,140.31 119.82,131.47 98.62,131.47 98.62,134.99 116.3,134.99 116.3,140.31 107.46,140.31 107.46,143.83 116.3,143.83 116.3,149.15 98.62,149.15 98.62,152.67 119.82,152.67 119.82,143.83 129.56,143.83 "/>
  <path class="fil2" d="M93.3 126.15l62.78 0 0 31.84 -62.78 0 0 -31.84zm-3.52 35.36l69.82 0 0 -38.88 -69.82 0 0 38.88z"/>
  <g id="_105553319663712">
   <path class="fil2" d="M2.1 58.63l0 -1.13 3.34 0 0 -27.37 -3.34 0 0 -1.13 22.01 0 0 7.13 -0.95 0c-0.33,-2.27 -1.03,-3.83 -2.11,-4.7 -1.07,-0.87 -2.92,-1.3 -5.54,-1.3l-5.56 0 0 12.53 0.9 0c1.93,0 3.3,-0.34 4.11,-1.04 0.82,-0.7 1.29,-1.92 1.44,-3.65l0.95 0 0 11.14 -0.97 0c-0.11,-1.97 -0.61,-3.36 -1.53,-4.14 -0.91,-0.79 -2.46,-1.18 -4.66,-1.18l-0.24 0 0 13.71 6.29 0c2.44,0 4.24,-0.53 5.38,-1.57 1.15,-1.05 2.01,-2.96 2.58,-5.74l0.99 0 -0.46 8.44 -22.63 0zm232.55 -9.97l0 1.32c0,2.98 0.38,5.06 1.16,6.24 0.76,1.18 2.1,1.78 3.99,1.78 1.61,0 2.96,-0.43 4.09,-1.3 1.12,-0.85 1.89,-2.06 2.3,-3.62l1 0c-0.45,2.01 -1.33,3.52 -2.66,4.53 -1.33,1.01 -3.09,1.51 -5.28,1.51 -2.48,0 -4.57,-0.83 -6.26,-2.49 -1.69,-1.67 -2.53,-3.72 -2.53,-6.14 0,-2.65 0.86,-4.9 2.59,-6.74 1.72,-1.84 3.83,-2.76 6.33,-2.76 2.34,0 4.18,0.66 5.53,1.97 1.36,1.32 2.15,3.22 2.37,5.7l-12.63 0zm0.13 -1.26l8.44 0 0 -0.45c0,-1.81 -0.31,-3.12 -0.92,-3.93 -0.61,-0.81 -1.59,-1.21 -2.96,-1.21 -1.41,0 -2.49,0.46 -3.25,1.4 -0.76,0.93 -1.19,2.33 -1.31,4.19zm-36.65 11.23l0 -1.04 2.34 0 0 -15.24 -2.39 0 0 -0.95c1,0 2,-0.04 2.99,-0.1 0.99,-0.08 1.97,-0.18 2.92,-0.31l0.02 4.33c0.69,-1.46 1.52,-2.55 2.51,-3.26 0.98,-0.71 2.14,-1.07 3.48,-1.07 1.48,0 2.63,0.39 3.48,1.15 0.84,0.76 1.31,1.82 1.38,3.21 0.59,-1.42 1.38,-2.51 2.4,-3.24 1,-0.75 2.21,-1.12 3.6,-1.12 1.62,0 2.83,0.46 3.64,1.38 0.82,0.92 1.23,2.27 1.23,4.08l0 11.14 2.25 0 0 1.04 -8.3 0 0 -1.04 2.57 0 0 -12.73c0,-0.88 -0.18,-1.54 -0.57,-1.99 -0.38,-0.44 -0.95,-0.66 -1.72,-0.66 -1.36,0 -2.57,0.69 -3.62,2.08 -1.05,1.37 -1.57,2.98 -1.57,4.82l0 8.48 2.25 0 0 1.04 -8.16 0 0 -1.04 2.48 0 0 -12.73c0,-0.94 -0.19,-1.62 -0.56,-2.03 -0.38,-0.41 -0.99,-0.62 -1.86,-0.62 -1.34,0 -2.52,0.8 -3.53,2.39 -1.02,1.58 -1.53,3.49 -1.53,5.72l0 7.27 2.3 0 0 1.04 -8.03 0zm-19.75 -8.57c0,-2.56 0.83,-4.7 2.49,-6.45 1.67,-1.74 3.71,-2.62 6.13,-2.62 2.46,0 4.51,0.86 6.13,2.58 1.62,1.72 2.43,3.87 2.43,6.44 0,2.54 -0.84,4.69 -2.52,6.46 -1.68,1.77 -3.71,2.65 -6.08,2.65 -2.46,0 -4.52,-0.86 -6.14,-2.58 -1.63,-1.72 -2.44,-3.89 -2.44,-6.48zm4.15 0c0,3.25 0.33,5.44 0.99,6.55 0.66,1.1 1.81,1.66 3.44,1.66 1.62,0 2.76,-0.59 3.44,-1.76 0.67,-1.17 1.01,-3.31 1.01,-6.41 0,-3.28 -0.32,-5.46 -0.98,-6.54 -0.65,-1.08 -1.8,-1.62 -3.43,-1.62 -1.65,0 -2.8,0.57 -3.47,1.72 -0.67,1.15 -1,3.27 -1,6.4zm-35.76 8.57l0 -1.13 3.34 0 0 -27.37 -3.34 0 0 -1.13 11.19 0 0 1.13 -3.34 0 0 12.53 12.76 0 0 -12.53 -3.33 0 0 -1.13 11.18 0 0 1.13 -3.34 0 0 27.37 3.34 0 0 1.13 -11.18 0 0 -1.13 3.33 0 0 -13.57 -12.76 0 0 13.57 3.34 0 0 1.13 -11.19 0zm-22 -3.11l0 -13.17 -2.53 0 0 -0.95 2.53 0 0 -5.45c0.15,0.01 0.3,0.02 0.46,0.02 0.16,0.01 0.4,0.02 0.71,0.02 0.44,0 0.85,-0.02 1.22,-0.04 0.37,-0.04 0.7,-0.08 0.99,-0.14l0 5.59 4.01 0 0 0.95 -4.01 0 0 12.75c0,1.02 0.12,1.69 0.36,2.01 0.24,0.32 0.69,0.48 1.35,0.48 0.41,0 0.82,-0.14 1.22,-0.41 0.4,-0.27 0.81,-0.68 1.22,-1.22l0.72 0.55c-0.69,0.95 -1.4,1.64 -2.13,2.04 -0.72,0.42 -1.58,0.62 -2.57,0.62 -1.22,0 -2.12,-0.29 -2.69,-0.89 -0.58,-0.59 -0.86,-1.52 -0.86,-2.76zm-24.36 3.11l0 -1.04 2.39 0 0 -15.24 -2.44 0 0 -0.95 0.82 0c0.9,0 1.78,-0.04 2.63,-0.1 0.85,-0.08 1.65,-0.18 2.39,-0.31l0.03 5.01c0.64,-1.65 1.53,-2.9 2.66,-3.74 1.12,-0.84 2.46,-1.27 4.02,-1.27 1.57,0 2.79,0.43 3.67,1.26 0.88,0.84 1.33,2.01 1.33,3.51l0 11.83 2.34 0 0 1.04 -8.34 0 0 -1.04 2.57 0 0 -11.96c0,-1.13 -0.23,-1.97 -0.68,-2.51 -0.46,-0.55 -1.17,-0.82 -2.13,-0.82 -1.45,0 -2.71,0.73 -3.77,2.18 -1.06,1.46 -1.58,3.23 -1.58,5.32l0 7.79 2.39 0 0 1.04 -8.3 0zm-8.43 -9.02c-2.51,0 -4.44,0.37 -5.77,1.13 -1.33,0.75 -1.99,1.85 -1.99,3.29 0,1.02 0.31,1.84 0.92,2.46 0.62,0.61 1.45,0.92 2.48,0.92 1.28,0 2.32,-0.33 3.13,-0.99 0.82,-0.66 1.23,-1.51 1.23,-2.57l0 -4.24zm0.11 6.61c-0.58,0.9 -1.44,1.61 -2.59,2.14 -1.16,0.54 -2.41,0.81 -3.75,0.81 -1.52,0 -2.73,-0.37 -3.62,-1.1 -0.89,-0.74 -1.34,-1.71 -1.34,-2.92 0,-2.01 1,-3.6 2.97,-4.75 1.98,-1.16 4.71,-1.75 8.22,-1.78l0 -4.23c0,-0.87 -0.3,-1.51 -0.87,-1.92 -0.58,-0.41 -1.48,-0.62 -2.68,-0.62 -0.96,0 -1.8,0.17 -2.53,0.51 -0.72,0.33 -1.08,0.68 -1.08,1.03 0,0.06 0.2,0.29 0.63,0.69 0.41,0.41 0.62,0.87 0.62,1.38 0,0.56 -0.17,1.01 -0.5,1.37 -0.34,0.35 -0.78,0.52 -1.3,0.52 -0.59,0 -1.06,-0.18 -1.39,-0.57 -0.34,-0.38 -0.51,-0.89 -0.51,-1.54 0,-1.22 0.66,-2.23 1.99,-3.03 1.31,-0.81 3.02,-1.22 5.1,-1.22 2.2,0 3.75,0.35 4.64,1.05 0.9,0.7 1.35,1.94 1.35,3.73l0 9.84c0,0.69 0.07,1.14 0.19,1.35 0.14,0.21 0.37,0.31 0.71,0.31 0.36,0 0.69,-0.15 0.99,-0.45 0.29,-0.3 0.48,-0.67 0.59,-1.12l0.72 0c-0.09,1.02 -0.47,1.85 -1.15,2.48 -0.68,0.63 -1.52,0.94 -2.54,0.94 -0.86,0 -1.53,-0.24 -2.01,-0.72 -0.49,-0.49 -0.78,-1.21 -0.86,-2.18zm-26.13 -9.63c0,1.82 0.23,3.08 0.69,3.78 0.47,0.7 1.25,1.04 2.37,1.04 1.21,0 2.03,-0.31 2.46,-0.94 0.44,-0.62 0.66,-1.88 0.66,-3.79 0,-1.81 -0.22,-3.06 -0.67,-3.74 -0.44,-0.7 -1.22,-1.04 -2.36,-1.04 -1.13,0 -1.94,0.35 -2.42,1.06 -0.49,0.72 -0.73,1.93 -0.73,3.63zm-0.18 9.33l6.86 0c1.95,0 3.4,0.44 4.34,1.32 0.95,0.88 1.42,2.23 1.42,4.05 0,2.37 -0.8,4.17 -2.42,5.39 -1.61,1.22 -4.02,1.82 -7.22,1.82 -2.45,0 -4.39,-0.42 -5.81,-1.26 -1.42,-0.84 -2.13,-1.97 -2.13,-3.37 0,-1.09 0.44,-2.03 1.33,-2.83 0.9,-0.8 2.26,-1.48 4.07,-2.05 -1.54,-0.11 -2.76,-0.46 -3.67,-1.07 -0.91,-0.61 -1.37,-1.37 -1.37,-2.3 0,-1.06 0.39,-1.9 1.16,-2.53 0.79,-0.63 1.94,-1.06 3.48,-1.26 -1.21,-0.63 -2.09,-1.34 -2.62,-2.12 -0.53,-0.77 -0.8,-1.72 -0.8,-2.85 0,-1.71 0.62,-3.11 1.87,-4.21 1.24,-1.11 2.86,-1.66 4.84,-1.66 1.15,0 2.18,0.19 3.08,0.58 0.9,0.38 1.65,0.94 2.25,1.7 0.45,-0.85 0.88,-1.45 1.3,-1.78 0.42,-0.33 0.95,-0.5 1.58,-0.5 0.48,0 0.89,0.16 1.22,0.47 0.33,0.31 0.5,0.69 0.5,1.12 0,0.47 -0.11,0.84 -0.31,1.1 -0.21,0.25 -0.49,0.38 -0.86,0.38 -0.47,0 -0.86,-0.19 -1.15,-0.58 -0.29,-0.39 -0.48,-0.59 -0.57,-0.59 -0.2,0 -0.41,0.14 -0.64,0.43 -0.23,0.28 -0.34,0.57 -0.34,0.85 0,0.01 0.08,0.31 0.24,0.91 0.16,0.6 0.24,1.19 0.24,1.78 0,0.98 -0.28,1.91 -0.82,2.78 -0.55,0.88 -1.3,1.55 -2.24,2.01 -0.86,0.42 -2.18,0.67 -3.93,0.75 -0.49,0.02 -0.85,0.03 -1.11,0.05 -1.64,0.14 -2.85,0.41 -3.63,0.8 -0.77,0.39 -1.16,0.92 -1.16,1.6 0,0.4 0.18,0.69 0.55,0.84 0.38,0.16 1.2,0.23 2.47,0.23zm5.36 2.98l-3.02 0c-1.41,0.6 -2.49,1.31 -3.22,2.15 -0.74,0.82 -1.11,1.73 -1.11,2.72 0,1.16 0.5,2.06 1.49,2.7 0.99,0.64 2.41,0.95 4.24,0.95 2.27,0 4.07,-0.45 5.4,-1.34 1.33,-0.9 2,-2.12 2,-3.66 0,-1.27 -0.43,-2.18 -1.29,-2.72 -0.86,-0.53 -2.35,-0.8 -4.49,-0.8zm-25.7 -10.24l0 1.32c0,2.98 0.38,5.06 1.16,6.24 0.76,1.18 2.1,1.78 3.99,1.78 1.61,0 2.97,-0.43 4.1,-1.3 1.11,-0.85 1.88,-2.06 2.29,-3.62l1 0c-0.45,2.01 -1.33,3.52 -2.66,4.53 -1.33,1.01 -3.09,1.51 -5.28,1.51 -2.48,0 -4.57,-0.83 -6.26,-2.49 -1.69,-1.67 -2.53,-3.72 -2.53,-6.14 0,-2.65 0.86,-4.9 2.59,-6.74 1.72,-1.84 3.83,-2.76 6.33,-2.76 2.34,0 4.18,0.66 5.54,1.97 1.35,1.32 2.14,3.22 2.36,5.7l-12.63 0zm0.13 -1.26l8.44 0 0 -0.45c0,-1.81 -0.31,-3.12 -0.92,-3.93 -0.61,-0.81 -1.59,-1.21 -2.96,-1.21 -1.41,0 -2.49,0.46 -3.25,1.4 -0.76,0.93 -1.19,2.33 -1.31,4.19zm-17.18 11.23l0 -1.04 3.3 0 0 -27.69 -3.39 0 0 -0.9c1.19,-0.03 2.37,-0.07 3.53,-0.15 1.16,-0.08 2.31,-0.17 3.46,-0.3l0 29.04 3.39 0 0 1.04 -10.29 0z"/>
   <path class="fil2" d="M2.1 58.63l0 -1.13 3.34 0 0 -27.37 -3.34 0 0 -1.13 22.01 0 0 7.13 -0.95 0c-0.34,-2.27 -1.03,-3.83 -2.11,-4.7 -1.07,-0.87 -2.92,-1.3 -5.54,-1.3l-5.56 0 0 12.53 0.9 0c1.93,0 3.3,-0.34 4.11,-1.04 0.82,-0.7 1.29,-1.92 1.44,-3.65l0.95 0 0 11.14 -0.97 0c-0.11,-1.97 -0.61,-3.36 -1.53,-4.14 -0.91,-0.79 -2.47,-1.18 -4.66,-1.18l-0.24 0 0 13.71 6.29 0c2.44,0 4.24,-0.53 5.38,-1.57 1.15,-1.05 2.01,-2.96 2.58,-5.74l0.99 0 -0.46 8.44 -22.63 0zm232.55 -9.97l0 1.32c0,2.98 0.38,5.06 1.16,6.24 0.76,1.18 2.1,1.78 3.99,1.78 1.61,0 2.96,-0.43 4.09,-1.3 1.12,-0.85 1.89,-2.06 2.3,-3.62l1 0c-0.45,2.01 -1.33,3.52 -2.66,4.53 -1.33,1.01 -3.09,1.51 -5.28,1.51 -2.48,0 -4.57,-0.83 -6.26,-2.49 -1.69,-1.67 -2.53,-3.72 -2.53,-6.13 0,-2.66 0.86,-4.91 2.59,-6.75 1.72,-1.84 3.83,-2.76 6.33,-2.76 2.34,0 4.18,0.66 5.53,1.97 1.36,1.32 2.15,3.22 2.37,5.7l-12.63 0zm0.13 -1.26l8.44 0 0 -0.45c0,-1.81 -0.31,-3.12 -0.92,-3.93 -0.61,-0.81 -1.59,-1.21 -2.96,-1.21 -1.41,0 -2.49,0.46 -3.25,1.4 -0.76,0.93 -1.19,2.33 -1.31,4.19zm-36.65 11.23l0 -1.04 2.34 0 0 -15.24 -2.39 0 0 -0.95c1,0 2,-0.04 2.99,-0.1 0.99,-0.08 1.97,-0.18 2.92,-0.31l0.02 4.33c0.69,-1.46 1.52,-2.55 2.51,-3.26 0.98,-0.71 2.14,-1.07 3.48,-1.07 1.48,0 2.63,0.39 3.48,1.15 0.84,0.76 1.3,1.82 1.38,3.21 0.59,-1.42 1.38,-2.51 2.4,-3.24 1,-0.75 2.21,-1.12 3.6,-1.12 1.62,0 2.83,0.46 3.64,1.38 0.82,0.92 1.23,2.27 1.23,4.08l0 11.14 2.25 0 0 1.04 -8.3 0 0 -1.04 2.57 0 0 -12.73c0,-0.88 -0.18,-1.54 -0.57,-1.99 -0.38,-0.44 -0.95,-0.66 -1.72,-0.66 -1.36,0 -2.57,0.7 -3.62,2.08 -1.05,1.37 -1.57,2.98 -1.57,4.82l0 8.48 2.25 0 0 1.04 -8.16 0 0 -1.04 2.48 0 0 -12.73c0,-0.94 -0.19,-1.62 -0.56,-2.03 -0.38,-0.41 -0.99,-0.62 -1.86,-0.62 -1.34,0 -2.52,0.8 -3.53,2.39 -1.02,1.58 -1.53,3.49 -1.53,5.72l0 7.27 2.29 0 0 1.04 -8.02 0zm-19.75 -8.57c0,-2.56 0.83,-4.7 2.49,-6.45 1.67,-1.74 3.71,-2.62 6.13,-2.62 2.46,0 4.51,0.86 6.13,2.58 1.62,1.72 2.43,3.87 2.43,6.44 0,2.54 -0.84,4.69 -2.52,6.46 -1.68,1.77 -3.71,2.65 -6.08,2.65 -2.46,0 -4.52,-0.86 -6.14,-2.58 -1.63,-1.72 -2.44,-3.89 -2.44,-6.48zm4.15 0c0,3.25 0.33,5.44 0.99,6.55 0.66,1.1 1.81,1.66 3.44,1.66 1.62,0 2.76,-0.59 3.43,-1.76 0.68,-1.17 1.02,-3.31 1.02,-6.41 0,-3.28 -0.32,-5.46 -0.98,-6.54 -0.65,-1.08 -1.8,-1.62 -3.43,-1.62 -1.65,0 -2.8,0.57 -3.47,1.72 -0.67,1.15 -1,3.27 -1,6.4zm-35.76 8.57l0 -1.13 3.34 0 0 -27.37 -3.34 0 0 -1.13 11.19 0 0 1.13 -3.34 0 0 12.53 12.76 0 0 -12.53 -3.33 0 0 -1.13 11.18 0 0 1.13 -3.34 0 0 27.37 3.34 0 0 1.13 -11.18 0 0 -1.13 3.33 0 0 -13.57 -12.76 0 0 13.57 3.34 0 0 1.13 -11.19 0zm-22 -3.11l0 -13.17 -2.53 0 0 -0.95 2.53 0 0 -5.45c0.15,0.01 0.3,0.02 0.46,0.02 0.16,0.01 0.4,0.02 0.71,0.02 0.44,0 0.85,-0.02 1.22,-0.04 0.36,-0.04 0.7,-0.08 0.99,-0.14l0 5.59 4.01 0 0 0.95 -4.01 0 0 12.75c0,1.02 0.12,1.69 0.36,2.01 0.24,0.32 0.69,0.48 1.35,0.48 0.41,0 0.81,-0.14 1.22,-0.41 0.4,-0.27 0.81,-0.68 1.22,-1.22l0.72 0.55c-0.69,0.95 -1.4,1.64 -2.13,2.04 -0.72,0.42 -1.58,0.62 -2.57,0.62 -1.22,0 -2.12,-0.29 -2.69,-0.89 -0.58,-0.59 -0.86,-1.52 -0.86,-2.76zm-24.36 3.11l0 -1.04 2.39 0 0 -15.24 -2.44 0 0 -0.95 0.82 0c0.9,0 1.78,-0.04 2.63,-0.1 0.85,-0.08 1.65,-0.18 2.39,-0.31l0.03 5.01c0.64,-1.65 1.53,-2.9 2.66,-3.74 1.12,-0.84 2.46,-1.27 4.02,-1.27 1.57,0 2.79,0.43 3.67,1.26 0.88,0.84 1.33,2.01 1.33,3.51l0 11.83 2.34 0 0 1.04 -8.34 0 0 -1.04 2.57 0 0 -11.96c0,-1.13 -0.23,-1.97 -0.68,-2.51 -0.46,-0.55 -1.17,-0.82 -2.13,-0.82 -1.45,0 -2.71,0.73 -3.77,2.18 -1.06,1.46 -1.58,3.23 -1.58,5.32l0 7.79 2.39 0 0 1.04 -8.3 0zm-8.43 -9.02c-2.51,0 -4.44,0.37 -5.77,1.13 -1.33,0.75 -1.99,1.85 -1.99,3.29 0,1.02 0.31,1.84 0.92,2.46 0.62,0.61 1.45,0.92 2.48,0.92 1.28,0 2.32,-0.33 3.13,-0.99 0.82,-0.66 1.23,-1.51 1.23,-2.57l0 -4.24zm0.11 6.61c-0.58,0.9 -1.44,1.61 -2.59,2.14 -1.16,0.54 -2.41,0.81 -3.75,0.81 -1.52,0 -2.73,-0.37 -3.62,-1.1 -0.89,-0.73 -1.34,-1.71 -1.34,-2.92 0,-2.01 1,-3.59 2.97,-4.75 1.98,-1.16 4.71,-1.75 8.22,-1.78l0 -4.23c0,-0.87 -0.3,-1.51 -0.87,-1.92 -0.58,-0.41 -1.48,-0.62 -2.68,-0.62 -0.96,0 -1.8,0.17 -2.53,0.51 -0.72,0.33 -1.08,0.68 -1.08,1.03 0,0.06 0.2,0.29 0.63,0.69 0.41,0.41 0.62,0.87 0.62,1.38 0,0.56 -0.17,1.01 -0.5,1.37 -0.34,0.35 -0.78,0.52 -1.3,0.52 -0.59,0 -1.06,-0.18 -1.4,-0.57 -0.33,-0.38 -0.5,-0.89 -0.5,-1.54 0,-1.22 0.66,-2.23 1.99,-3.03 1.31,-0.81 3.02,-1.22 5.1,-1.22 2.2,0 3.75,0.35 4.64,1.05 0.9,0.7 1.35,1.94 1.35,3.73l0 9.84c0,0.69 0.07,1.14 0.19,1.35 0.14,0.21 0.37,0.31 0.71,0.31 0.36,0 0.69,-0.15 0.99,-0.45 0.29,-0.3 0.48,-0.67 0.59,-1.12l0.72 0c-0.09,1.02 -0.47,1.85 -1.15,2.48 -0.68,0.63 -1.52,0.94 -2.54,0.94 -0.86,0 -1.53,-0.24 -2.01,-0.72 -0.49,-0.49 -0.78,-1.21 -0.86,-2.18zm-26.13 -9.63c0,1.82 0.23,3.08 0.69,3.78 0.46,0.7 1.25,1.04 2.37,1.04 1.21,0 2.03,-0.31 2.46,-0.94 0.44,-0.62 0.65,-1.88 0.65,-3.79 0,-1.81 -0.21,-3.06 -0.66,-3.74 -0.44,-0.7 -1.22,-1.04 -2.36,-1.04 -1.13,0 -1.94,0.35 -2.42,1.06 -0.49,0.72 -0.73,1.93 -0.73,3.63zm-0.18 9.33l6.86 0c1.95,0 3.4,0.44 4.34,1.32 0.95,0.88 1.42,2.23 1.42,4.05 0,2.37 -0.8,4.17 -2.42,5.39 -1.61,1.22 -4.02,1.82 -7.22,1.82 -2.45,0 -4.39,-0.42 -5.81,-1.26 -1.42,-0.84 -2.13,-1.97 -2.13,-3.37 0,-1.09 0.44,-2.03 1.33,-2.83 0.9,-0.8 2.26,-1.48 4.07,-2.05 -1.54,-0.11 -2.76,-0.46 -3.67,-1.07 -0.91,-0.61 -1.37,-1.37 -1.37,-2.3 0,-1.06 0.39,-1.9 1.16,-2.53 0.78,-0.63 1.94,-1.06 3.48,-1.26 -1.21,-0.63 -2.09,-1.33 -2.62,-2.12 -0.53,-0.77 -0.81,-1.72 -0.81,-2.85 0,-1.71 0.63,-3.11 1.88,-4.21 1.24,-1.11 2.86,-1.66 4.84,-1.66 1.15,0 2.18,0.19 3.08,0.58 0.9,0.38 1.65,0.94 2.25,1.7 0.45,-0.85 0.88,-1.45 1.3,-1.78 0.42,-0.33 0.95,-0.5 1.58,-0.5 0.48,0 0.89,0.16 1.22,0.47 0.33,0.31 0.49,0.69 0.49,1.12 0,0.47 -0.1,0.84 -0.3,1.1 -0.21,0.25 -0.49,0.38 -0.86,0.38 -0.47,0 -0.86,-0.19 -1.15,-0.58 -0.29,-0.39 -0.48,-0.59 -0.57,-0.59 -0.2,0 -0.41,0.14 -0.64,0.43 -0.23,0.28 -0.34,0.57 -0.34,0.85 0,0.01 0.08,0.31 0.24,0.91 0.16,0.6 0.24,1.19 0.24,1.78 0,0.98 -0.28,1.91 -0.82,2.78 -0.55,0.88 -1.3,1.55 -2.24,2.01 -0.86,0.42 -2.18,0.67 -3.93,0.75 -0.49,0.02 -0.85,0.04 -1.11,0.05 -1.64,0.14 -2.85,0.41 -3.63,0.8 -0.77,0.39 -1.16,0.92 -1.16,1.6 0,0.4 0.18,0.69 0.55,0.84 0.38,0.16 1.2,0.23 2.47,0.23zm5.36 2.98l-3.02 0c-1.41,0.6 -2.49,1.31 -3.22,2.15 -0.74,0.82 -1.11,1.73 -1.11,2.72 0,1.16 0.5,2.06 1.49,2.7 0.99,0.64 2.41,0.95 4.24,0.95 2.27,0 4.07,-0.45 5.4,-1.34 1.33,-0.9 1.99,-2.12 1.99,-3.66 0,-1.27 -0.42,-2.18 -1.28,-2.72 -0.86,-0.53 -2.35,-0.8 -4.49,-0.8zm-25.7 -10.24l0 1.32c0,2.98 0.38,5.06 1.16,6.24 0.76,1.18 2.1,1.78 3.99,1.78 1.61,0 2.97,-0.43 4.1,-1.3 1.11,-0.85 1.88,-2.06 2.29,-3.62l1 0c-0.45,2.01 -1.33,3.52 -2.66,4.53 -1.33,1.01 -3.09,1.51 -5.28,1.51 -2.48,0 -4.57,-0.83 -6.26,-2.49 -1.69,-1.67 -2.53,-3.72 -2.53,-6.13 0,-2.66 0.86,-4.91 2.59,-6.75 1.72,-1.84 3.83,-2.76 6.33,-2.76 2.34,0 4.18,0.66 5.54,1.97 1.35,1.32 2.14,3.22 2.36,5.7l-12.63 0zm0.13 -1.26l8.44 0 0 -0.45c0,-1.81 -0.31,-3.12 -0.92,-3.93 -0.61,-0.81 -1.59,-1.21 -2.96,-1.21 -1.41,0 -2.49,0.46 -3.25,1.4 -0.76,0.93 -1.19,2.33 -1.31,4.19zm-17.18 11.23l0 -1.04 3.3 0 0 -27.69 -3.39 0 0 -0.9c1.19,-0.03 2.37,-0.07 3.53,-0.15 1.16,-0.08 2.31,-0.17 3.46,-0.3l0 29.04 3.39 0 0 1.04 -10.29 0z"/>
  </g>
  <polygon class="fil1" points="57.48,93.4 191.9,93.4 191.9,94.06 57.48,94.06 "/>
  <polygon class="fil2" points="30.85,177.97 32.79,177.97 32.79,194.42 30.85,194.42 "/>
  <polygon class="fil2" points="234.83,192.42 246.96,179.79 246.96,177.97 232.24,177.97 232.24,179.97 243.93,179.97 232.16,192.52 232.07,192.61 232.07,194.42 247.5,194.42 247.5,192.42 "/>
  <polygon class="fil2" points="3.82,186.73 12.41,186.73 12.41,184.72 3.82,184.72 3.82,179.97 16.17,179.97 16.17,177.97 1.87,177.97 1.87,194.42 16.74,194.42 16.74,192.42 3.82,192.42 "/>
  <path class="fil2" d="M162.51 186.16c0,1 -0.17,1.93 -0.51,2.75 -0.34,0.82 -0.82,1.53 -1.44,2.11 -0.61,0.58 -1.37,1.04 -2.23,1.36 -0.87,0.33 -1.86,0.5 -2.94,0.5 -1.08,0 -2.07,-0.17 -2.94,-0.49 -0.86,-0.31 -1.61,-0.77 -2.23,-1.36 -0.61,-0.58 -1.09,-1.29 -1.42,-2.11 -0.33,-0.83 -0.5,-1.76 -0.5,-2.76 0,-2.06 0.76,-3.75 2.26,-5.04 0.61,-0.52 1.35,-0.94 2.18,-1.24 0.83,-0.3 1.72,-0.45 2.65,-0.45 0.94,0 1.83,0.15 2.66,0.45 0.83,0.3 1.56,0.72 2.18,1.24 1.51,1.3 2.28,3 2.28,5.04zm-0.79 -6.43c-0.81,-0.72 -1.77,-1.28 -2.85,-1.68 -1.07,-0.39 -2.24,-0.58 -3.46,-0.58 -1.23,0 -2.4,0.19 -3.48,0.58 -1.08,0.4 -2.03,0.96 -2.84,1.68 -1.88,1.67 -2.84,3.84 -2.84,6.44 0,2.64 0.95,4.81 2.82,6.47 0.8,0.71 1.75,1.27 2.83,1.66 1.07,0.38 2.26,0.58 3.52,0.58 1.26,0 2.43,-0.2 3.5,-0.58 1.07,-0.39 2.02,-0.95 2.82,-1.66 1.87,-1.66 2.82,-3.83 2.82,-6.47 0,-2.6 -0.96,-4.77 -2.84,-6.44z"/>
  <path class="fil2" d="M52.39 181.1c0.61,-0.52 1.34,-0.94 2.17,-1.23 0.83,-0.29 1.73,-0.44 2.66,-0.44 1.32,0 2.5,0.21 3.5,0.62 0.99,0.41 1.9,1.07 2.69,1.96l0.15 0.17 1.74 -0.74 -0.23 -0.32c-0.84,-1.18 -1.94,-2.09 -3.27,-2.72 -1.32,-0.62 -2.86,-0.93 -4.58,-0.93 -1.23,0 -2.4,0.19 -3.46,0.57 -1.08,0.39 -2.03,0.95 -2.84,1.67 -1.88,1.66 -2.84,3.82 -2.84,6.44 0,1.64 0.36,3.11 1.08,4.38 0.71,1.26 1.74,2.29 3.07,3.04 1.49,0.86 3.24,1.29 5.18,1.29 1.72,0 3.24,-0.29 4.51,-0.85 1.28,-0.56 2.31,-1.4 3.07,-2.47l0.19 -0.26 -1.6 -1.12 -0.18 0.23c-0.7,0.88 -1.55,1.52 -2.55,1.91 -1.01,0.4 -2.23,0.6 -3.63,0.6 -1.06,0 -2.04,-0.17 -2.91,-0.5 -0.87,-0.32 -1.62,-0.79 -2.23,-1.37 -0.62,-0.59 -1.1,-1.3 -1.44,-2.12 -0.34,-0.82 -0.51,-1.74 -0.51,-2.75 0,-2.07 0.76,-3.77 2.26,-5.06z"/>
  <polygon class="fil2" points="202.96,179.97 209.97,179.97 209.97,194.42 211.91,194.42 211.91,179.97 218.92,179.97 218.92,177.97 202.96,177.97 "/>
  <polygon class="fil2" points="183.08,177.97 181.13,177.97 181.13,194.42 194.4,194.42 194.4,192.42 183.08,192.42 "/>
  <polygon class="fil2" points="128.94,184.72 116.73,184.72 116.73,177.97 114.79,177.97 114.79,194.42 116.73,194.42 116.73,186.73 128.94,186.73 128.94,194.42 130.89,194.42 130.89,177.97 128.94,177.97 "/>
  <polygon class="fil2" points="95.82,184.72 83.62,184.72 83.62,177.97 81.67,177.97 81.67,194.42 83.62,194.42 83.62,186.73 95.82,186.73 95.82,194.42 97.77,194.42 97.77,177.97 95.82,177.97 "/>
  <polygon class="fil2" points="129.56,152.67 150.76,152.67 150.76,149.15 133.08,149.15 133.08,143.83 141.92,143.83 141.92,140.31 133.08,140.31 133.08,134.99 150.76,134.99 150.76,131.47 129.56,131.47 129.56,140.31 119.82,140.31 119.82,131.47 98.62,131.47 98.62,134.99 116.3,134.99 116.3,140.31 107.46,140.31 107.46,143.83 116.3,143.83 116.3,149.15 98.62,149.15 98.62,152.67 119.82,152.67 119.82,143.83 129.56,143.83 "/>
  <path class="fil2" d="M93.3 126.15l62.78 0 0 31.84 -62.78 0 0 -31.84zm-3.52 35.36l69.82 0 0 -38.88 -69.82 0 0 38.88z"/>
  <line class="fil3 str0" x1="0" y1="0.85" x2="918.02" y2= "0.85" />
  <line class="fil3 str0" x1="0" y1="242.13" x2="918.02" y2= "242.13" />
  <circle class="fil3 str0" cx="783.21" cy="122.19" r="83.42"/>
  <path class="fil4" d="M783.21 15.7c29.41,0 56.03,11.92 75.31,31.19 19.27,19.27 31.19,45.9 31.19,75.3 0,29.41 -11.92,56.03 -31.19,75.31 -19.28,19.26 -45.9,31.19 -75.31,31.19 -29.4,0 -56.03,-11.93 -75.3,-31.19 -19.27,-19.28 -31.19,-45.9 -31.19,-75.31 0,-29.4 11.92,-56.03 31.19,-75.3 19.27,-19.27 45.9,-31.19 75.3,-31.19zm63.3 43.19c-16.2,-16.19 -38.58,-26.21 -63.3,-26.21 -24.71,0 -47.1,10.02 -63.3,26.21 -16.19,16.2 -26.21,38.58 -26.21,63.3 0,24.72 10.02,47.1 26.21,63.3 16.2,16.2 38.59,26.22 63.3,26.22 24.72,0 47.1,-10.02 63.3,-26.22 16.2,-16.2 26.22,-38.58 26.22,-63.3 0,-24.72 -10.02,-47.1 -26.22,-63.3z"/>
  <path class="fil5" d="M754.15 97.4l-6.29 0 0 -1.16 3.94 -4.02c0.15,-0.15 0.29,-0.3 0.45,-0.47 0.15,-0.17 0.28,-0.35 0.4,-0.53 0.13,-0.18 0.23,-0.38 0.3,-0.59 0.07,-0.21 0.11,-0.42 0.11,-0.64 0,-0.27 -0.04,-0.52 -0.14,-0.73 -0.1,-0.21 -0.24,-0.39 -0.42,-0.54 -0.18,-0.16 -0.38,-0.27 -0.62,-0.35 -0.23,-0.07 -0.47,-0.11 -0.74,-0.11 -0.5,0 -0.93,0.13 -1.28,0.41 -0.35,0.28 -0.59,0.66 -0.69,1.14l-1.06 -0.12c0.14,-0.74 0.47,-1.31 1.02,-1.73 0.53,-0.42 1.17,-0.63 1.94,-0.63 0.41,0 0.79,0.06 1.15,0.16 0.35,0.11 0.67,0.27 0.95,0.48 0.27,0.21 0.49,0.48 0.66,0.8 0.15,0.32 0.24,0.7 0.24,1.13 0,0.38 -0.06,0.73 -0.17,1.05 -0.13,0.32 -0.28,0.62 -0.46,0.9 -0.19,0.28 -0.39,0.54 -0.63,0.79 -0.24,0.26 -0.49,0.51 -0.74,0.74l-3.12 3.09 5.2 0 0 0.93z"/>
  <path id="1" class="fil5" d="M758.85 88.26c-0.55,0 -0.97,0.13 -1.27,0.43 -0.33,0.29 -0.57,0.64 -0.72,1.07 -0.15,0.44 -0.25,0.88 -0.29,1.37 -0.04,0.49 -0.07,0.93 -0.07,1.32 0,0.39 0.03,0.82 0.07,1.31 0.04,0.49 0.14,0.94 0.29,1.37 0.15,0.43 0.39,0.78 0.72,1.08 0.3,0.29 0.72,0.43 1.27,0.43 0.54,0 0.96,-0.14 1.28,-0.43 0.31,-0.3 0.55,-0.65 0.7,-1.08 0.15,-0.43 0.27,-0.88 0.31,-1.37 0.04,-0.49 0.06,-0.92 0.06,-1.31 0,-0.39 -0.02,-0.83 -0.06,-1.32 -0.04,-0.49 -0.16,-0.93 -0.31,-1.37 -0.15,-0.43 -0.39,-0.78 -0.7,-1.07 -0.32,-0.3 -0.74,-0.43 -1.28,-0.43zm0 -0.93c0.71,0 1.28,0.17 1.72,0.49 0.43,0.32 0.78,0.74 1.02,1.25 0.23,0.5 0.4,1.04 0.49,1.65 0.08,0.6 0.12,1.18 0.12,1.73 0,0.54 -0.04,1.12 -0.12,1.72 -0.09,0.6 -0.26,1.16 -0.49,1.66 -0.24,0.5 -0.59,0.92 -1.02,1.25 -0.44,0.32 -1.01,0.48 -1.72,0.48 -0.72,0 -1.29,-0.16 -1.72,-0.48 -0.44,-0.33 -0.79,-0.75 -1.02,-1.25 -0.24,-0.5 -0.41,-1.06 -0.49,-1.66 -0.09,-0.6 -0.13,-1.18 -0.13,-1.72 0,-0.55 0.04,-1.13 0.13,-1.73 0.08,-0.61 0.25,-1.15 0.49,-1.65 0.23,-0.51 0.58,-0.93 1.02,-1.25 0.43,-0.32 1,-0.49 1.72,-0.49z"/>
  <path id="2" class="fil5" d="M769.69 97.4l-6.29 0 0 -1.16 3.95 -4.02c0.15,-0.15 0.29,-0.3 0.44,-0.47 0.16,-0.17 0.28,-0.35 0.41,-0.53 0.12,-0.18 0.22,-0.38 0.29,-0.59 0.07,-0.21 0.11,-0.42 0.11,-0.64 0,-0.27 -0.04,-0.52 -0.13,-0.73 -0.1,-0.21 -0.24,-0.39 -0.42,-0.54 -0.19,-0.16 -0.38,-0.27 -0.62,-0.35 -0.24,-0.07 -0.48,-0.11 -0.74,-0.11 -0.5,0 -0.94,0.13 -1.29,0.41 -0.35,0.28 -0.58,0.66 -0.68,1.14l-1.06 -0.12c0.14,-0.74 0.47,-1.31 1.02,-1.73 0.53,-0.42 1.17,-0.63 1.94,-0.63 0.41,0 0.78,0.06 1.15,0.16 0.35,0.11 0.67,0.27 0.95,0.48 0.26,0.21 0.49,0.48 0.65,0.8 0.16,0.32 0.24,0.7 0.24,1.13 0,0.38 -0.05,0.73 -0.17,1.05 -0.12,0.32 -0.28,0.62 -0.46,0.9 -0.18,0.28 -0.39,0.54 -0.63,0.79 -0.23,0.26 -0.49,0.51 -0.74,0.74l-3.12 3.09 5.2 0 0 0.93z"/>
  <polygon id="3" class="fil5" points="775.37,97.4 774.36,97.4 774.36,88.76 772.59,90.32 771.96,89.57 774.48,87.5 775.37,87.5 "/>
  <polygon id="4" class="fil5" points="786.29,94.5 782.7,94.5 782.7,93.58 786.29,93.58 "/>
  <path id="5" class="fil5" d="M797.67 97.4l-6.29 0 0 -1.16 3.94 -4.02c0.15,-0.15 0.3,-0.3 0.45,-0.47 0.15,-0.17 0.28,-0.35 0.4,-0.53 0.13,-0.18 0.23,-0.38 0.3,-0.59 0.07,-0.21 0.11,-0.42 0.11,-0.64 0,-0.27 -0.04,-0.52 -0.14,-0.73 -0.1,-0.21 -0.24,-0.39 -0.42,-0.54 -0.18,-0.16 -0.38,-0.27 -0.61,-0.35 -0.24,-0.07 -0.48,-0.11 -0.75,-0.11 -0.5,0 -0.93,0.13 -1.28,0.41 -0.35,0.28 -0.59,0.66 -0.69,1.14l-1.06 -0.12c0.14,-0.74 0.48,-1.31 1.02,-1.73 0.53,-0.42 1.18,-0.63 1.95,-0.63 0.4,0 0.78,0.06 1.14,0.16 0.35,0.11 0.67,0.27 0.95,0.48 0.27,0.21 0.49,0.48 0.66,0.8 0.15,0.32 0.24,0.7 0.24,1.13 0,0.38 -0.06,0.73 -0.17,1.05 -0.13,0.32 -0.28,0.62 -0.46,0.9 -0.18,0.28 -0.39,0.54 -0.63,0.79 -0.24,0.26 -0.49,0.51 -0.74,0.74l-3.12 3.09 5.2 0 0 0.93z"/>
  <path id="6" class="fil5" d="M802.37 88.26c-0.55,0 -0.97,0.13 -1.27,0.43 -0.33,0.29 -0.56,0.64 -0.72,1.07 -0.15,0.44 -0.25,0.88 -0.29,1.37 -0.04,0.49 -0.07,0.93 -0.07,1.32 0,0.39 0.03,0.82 0.07,1.31 0.04,0.49 0.14,0.94 0.29,1.37 0.16,0.43 0.39,0.78 0.72,1.08 0.3,0.29 0.72,0.43 1.27,0.43 0.54,0 0.96,-0.14 1.28,-0.43 0.31,-0.3 0.55,-0.65 0.7,-1.08 0.16,-0.43 0.27,-0.88 0.31,-1.37 0.04,-0.49 0.06,-0.92 0.06,-1.31 0,-0.39 -0.02,-0.83 -0.06,-1.32 -0.04,-0.49 -0.15,-0.93 -0.31,-1.37 -0.15,-0.43 -0.39,-0.78 -0.7,-1.07 -0.32,-0.3 -0.74,-0.43 -1.28,-0.43zm0 -0.93c0.71,0 1.28,0.17 1.72,0.49 0.43,0.32 0.78,0.74 1.02,1.25 0.23,0.5 0.4,1.04 0.49,1.65 0.08,0.6 0.12,1.18 0.12,1.73 0,0.54 -0.04,1.12 -0.12,1.72 -0.09,0.6 -0.26,1.16 -0.49,1.66 -0.24,0.5 -0.59,0.92 -1.02,1.25 -0.44,0.32 -1.01,0.48 -1.72,0.48 -0.71,0 -1.29,-0.16 -1.72,-0.48 -0.43,-0.33 -0.78,-0.75 -1.02,-1.25 -0.24,-0.5 -0.41,-1.06 -0.49,-1.66 -0.08,-0.6 -0.13,-1.18 -0.13,-1.72 0,-0.55 0.05,-1.13 0.13,-1.73 0.08,-0.61 0.25,-1.15 0.49,-1.65 0.24,-0.51 0.59,-0.93 1.02,-1.25 0.43,-0.32 1.01,-0.49 1.72,-0.49z"/>
  <path id="7" class="fil5" d="M813.22 97.4l-6.29 0 0 -1.16 3.94 -4.02c0.15,-0.15 0.29,-0.3 0.44,-0.47 0.16,-0.17 0.28,-0.35 0.41,-0.53 0.13,-0.18 0.22,-0.38 0.29,-0.59 0.07,-0.21 0.12,-0.42 0.12,-0.64 0,-0.27 -0.05,-0.52 -0.14,-0.73 -0.1,-0.21 -0.24,-0.39 -0.42,-0.54 -0.18,-0.16 -0.38,-0.27 -0.62,-0.35 -0.24,-0.07 -0.47,-0.11 -0.74,-0.11 -0.5,0 -0.94,0.13 -1.28,0.41 -0.35,0.28 -0.59,0.66 -0.69,1.14l-1.06 -0.12c0.14,-0.74 0.47,-1.31 1.02,-1.73 0.53,-0.42 1.17,-0.63 1.94,-0.63 0.41,0 0.78,0.06 1.15,0.16 0.35,0.11 0.67,0.27 0.95,0.48 0.26,0.21 0.49,0.48 0.66,0.8 0.15,0.32 0.23,0.7 0.23,1.13 0,0.38 -0.05,0.73 -0.16,1.05 -0.13,0.32 -0.29,0.62 -0.47,0.9 -0.18,0.28 -0.39,0.54 -0.62,0.79 -0.24,0.26 -0.49,0.51 -0.75,0.74l-3.11 3.09 5.2 0 0 0.93z"/>
  <path id="8" class="fil5" d="M816.88 91.75l0.52 0c0.29,0 0.57,-0.03 0.84,-0.1 0.26,-0.07 0.48,-0.17 0.68,-0.32 0.2,-0.14 0.35,-0.32 0.48,-0.56 0.11,-0.24 0.16,-0.52 0.16,-0.84 0,-0.53 -0.15,-0.95 -0.47,-1.24 -0.32,-0.3 -0.78,-0.43 -1.36,-0.43 -0.42,0 -0.78,0.09 -1.1,0.27 -0.32,0.19 -0.57,0.47 -0.79,0.82l-0.87 -0.45c0.29,-0.53 0.68,-0.93 1.14,-1.19 0.46,-0.25 0.99,-0.38 1.59,-0.38 0.4,0 0.76,0.06 1.11,0.17 0.35,0.11 0.64,0.28 0.91,0.49 0.26,0.22 0.47,0.49 0.63,0.81 0.15,0.32 0.22,0.7 0.22,1.1 0,0.27 -0.04,0.54 -0.13,0.77 -0.09,0.24 -0.21,0.46 -0.36,0.66 -0.15,0.2 -0.34,0.36 -0.54,0.5 -0.21,0.16 -0.42,0.27 -0.65,0.34l0.05 0.03c0.27,0.05 0.53,0.15 0.76,0.3 0.24,0.16 0.44,0.35 0.61,0.58 0.16,0.22 0.29,0.47 0.39,0.75 0.09,0.28 0.14,0.58 0.14,0.88 0,0.46 -0.09,0.87 -0.26,1.22 -0.16,0.35 -0.39,0.66 -0.68,0.89 -0.29,0.24 -0.63,0.42 -1.01,0.55 -0.37,0.13 -0.78,0.19 -1.21,0.19 -0.73,0 -1.36,-0.15 -1.9,-0.47 -0.55,-0.32 -0.96,-0.83 -1.22,-1.53l1.06 -0.32c0.17,0.48 0.42,0.83 0.76,1.05 0.32,0.24 0.78,0.35 1.38,0.35 0.28,0 0.55,-0.04 0.8,-0.14 0.25,-0.1 0.47,-0.22 0.67,-0.4 0.18,-0.17 0.33,-0.38 0.45,-0.62 0.09,-0.24 0.15,-0.5 0.15,-0.79 0,-0.38 -0.07,-0.69 -0.21,-0.96 -0.14,-0.25 -0.32,-0.46 -0.56,-0.61 -0.24,-0.15 -0.5,-0.28 -0.8,-0.35 -0.3,-0.07 -0.63,-0.1 -0.95,-0.1l-0.43 0 0 -0.92z"/>
  <path class="fil5" d="M748.87 117.99c-0.18,-0.22 -0.42,-0.39 -0.71,-0.5 -0.31,-0.1 -0.6,-0.15 -0.87,-0.15 -0.15,0 -0.32,0.01 -0.48,0.05 -0.17,0.05 -0.33,0.1 -0.48,0.17 -0.15,0.09 -0.27,0.2 -0.36,0.32 -0.1,0.13 -0.14,0.3 -0.14,0.48 0,0.29 0.11,0.53 0.33,0.68 0.23,0.16 0.51,0.3 0.85,0.41 0.34,0.11 0.7,0.22 1.1,0.33 0.39,0.12 0.75,0.27 1.1,0.48 0.34,0.21 0.61,0.47 0.84,0.82 0.22,0.35 0.33,0.81 0.33,1.39 0,0.54 -0.09,1.03 -0.3,1.44 -0.21,0.4 -0.48,0.75 -0.83,1.02 -0.35,0.26 -0.75,0.47 -1.22,0.6 -0.46,0.13 -0.94,0.2 -1.46,0.2 -0.65,0 -1.25,-0.1 -1.79,-0.3 -0.55,-0.19 -1.07,-0.51 -1.54,-0.95l1.55 -1.7c0.23,0.29 0.51,0.53 0.86,0.68 0.33,0.17 0.68,0.25 1.04,0.25 0.18,0 0.37,-0.03 0.55,-0.07 0.18,-0.04 0.33,-0.1 0.49,-0.18 0.14,-0.08 0.25,-0.2 0.35,-0.32 0.08,-0.13 0.12,-0.28 0.12,-0.46 0,-0.29 -0.11,-0.53 -0.33,-0.71 -0.24,-0.17 -0.52,-0.31 -0.87,-0.44 -0.35,-0.12 -0.71,-0.24 -1.12,-0.36 -0.4,-0.13 -0.77,-0.28 -1.12,-0.49 -0.35,-0.21 -0.63,-0.48 -0.85,-0.81 -0.24,-0.34 -0.35,-0.78 -0.35,-1.33 0,-0.53 0.11,-0.99 0.32,-1.4 0.21,-0.4 0.49,-0.74 0.84,-1 0.35,-0.27 0.74,-0.48 1.2,-0.62 0.47,-0.13 0.93,-0.19 1.42,-0.19 0.56,0 1.1,0.08 1.62,0.23 0.51,0.16 0.99,0.42 1.41,0.8l-1.5 1.63z"/>
  <polygon id="1" class="fil5" points="753.85,117.51 751.03,117.51 751.03,115.58 758.85,115.58 758.85,117.51 756.03,117.51 756.03,125.47 753.85,125.47 "/>
  <path id="2" class="fil5" d="M759.89 115.58l3.83 0c0.5,0 0.98,0.04 1.44,0.14 0.44,0.09 0.84,0.26 1.18,0.49 0.34,0.23 0.61,0.54 0.82,0.92 0.19,0.39 0.29,0.88 0.29,1.45 0,0.7 -0.18,1.29 -0.54,1.78 -0.37,0.49 -0.9,0.81 -1.6,0.93l2.52 4.18 -2.62 0 -2.07 -3.95 -1.07 0 0 3.95 -2.18 0 0 -9.89zm2.18 4.09l1.28 0c0.2,0 0.41,-0.01 0.63,-0.03 0.21,-0.01 0.41,-0.05 0.59,-0.12 0.18,-0.07 0.32,-0.17 0.45,-0.32 0.11,-0.16 0.17,-0.37 0.17,-0.63 0,-0.25 -0.06,-0.45 -0.16,-0.6 -0.1,-0.16 -0.24,-0.27 -0.39,-0.35 -0.15,-0.07 -0.34,-0.13 -0.54,-0.16 -0.22,-0.02 -0.41,-0.04 -0.61,-0.04l-1.42 0 0 2.25z"/>
  <path id="3" class="fil5" d="M768.34 120.53c0,-0.8 0.14,-1.52 0.41,-2.16 0.26,-0.64 0.63,-1.19 1.1,-1.65 0.48,-0.44 1.04,-0.79 1.69,-1.03 0.66,-0.24 1.37,-0.36 2.14,-0.36 0.77,0 1.49,0.12 2.14,0.36 0.66,0.24 1.22,0.59 1.69,1.03 0.48,0.46 0.86,1.01 1.12,1.65 0.27,0.64 0.39,1.36 0.39,2.16 0,0.79 -0.12,1.51 -0.39,2.15 -0.26,0.64 -0.64,1.19 -1.12,1.63 -0.47,0.46 -1.03,0.81 -1.69,1.05 -0.65,0.24 -1.37,0.37 -2.14,0.37 -0.77,0 -1.48,-0.13 -2.14,-0.37 -0.65,-0.24 -1.21,-0.59 -1.69,-1.05 -0.47,-0.44 -0.84,-0.99 -1.1,-1.63 -0.27,-0.64 -0.41,-1.36 -0.41,-2.15zm2.27 0c0,0.46 0.07,0.89 0.22,1.27 0.14,0.39 0.35,0.72 0.62,1 0.26,0.3 0.6,0.52 0.98,0.68 0.37,0.15 0.79,0.23 1.25,0.23 0.47,0 0.9,-0.08 1.28,-0.23 0.37,-0.16 0.69,-0.38 0.96,-0.68 0.27,-0.28 0.48,-0.61 0.63,-1 0.14,-0.38 0.21,-0.81 0.21,-1.27 0,-0.47 -0.07,-0.89 -0.21,-1.28 -0.15,-0.39 -0.36,-0.72 -0.63,-1.02 -0.27,-0.28 -0.59,-0.5 -0.96,-0.65 -0.38,-0.16 -0.81,-0.24 -1.28,-0.24 -0.46,0 -0.88,0.08 -1.25,0.24 -0.38,0.15 -0.72,0.37 -0.98,0.65 -0.27,0.3 -0.48,0.63 -0.62,1.02 -0.15,0.39 -0.22,0.81 -0.22,1.28z"/>
  <polygon id="4" class="fil5" points="780.43,115.58 783.4,115.58 787.6,122.45 787.63,122.45 787.63,115.58 789.81,115.58 789.81,125.47 786.96,125.47 782.64,118.43 782.61,118.43 782.61,125.47 780.43,125.47 "/>
  <path id="5" class="fil5" d="M800.72 124.77c-0.65,0.34 -1.32,0.58 -2.02,0.73 -0.7,0.16 -1.41,0.23 -2.14,0.23 -0.76,0 -1.48,-0.13 -2.13,-0.37 -0.66,-0.24 -1.22,-0.59 -1.7,-1.05 -0.47,-0.44 -0.83,-0.99 -1.1,-1.63 -0.27,-0.64 -0.41,-1.36 -0.41,-2.15 0,-0.8 0.14,-1.52 0.41,-2.16 0.27,-0.64 0.63,-1.19 1.1,-1.65 0.48,-0.44 1.04,-0.79 1.7,-1.03 0.65,-0.24 1.37,-0.36 2.13,-0.36 0.8,0 1.53,0.09 2.2,0.28 0.66,0.19 1.24,0.53 1.75,0.99l-1.54 1.67c-0.29,-0.3 -0.63,-0.54 -1.01,-0.69 -0.37,-0.16 -0.84,-0.24 -1.4,-0.24 -0.46,0 -0.88,0.08 -1.25,0.24 -0.38,0.15 -0.72,0.37 -0.98,0.65 -0.27,0.3 -0.48,0.63 -0.62,1.02 -0.15,0.39 -0.22,0.81 -0.22,1.28 0,0.46 0.07,0.89 0.22,1.27 0.14,0.39 0.35,0.72 0.62,1 0.26,0.3 0.6,0.52 0.98,0.68 0.37,0.15 0.79,0.23 1.25,0.23 0.48,0 0.89,-0.05 1.23,-0.17 0.35,-0.09 0.62,-0.21 0.83,-0.32l0 -1.6 -1.78 0 0 -2.02 3.88 0 0 5.17z"/>
  <polygon id="6" class="fil5" points="802.64,115.58 809.37,115.58 809.37,117.59 804.83,117.59 804.83,119.43 809.12,119.43 809.12,121.45 804.83,121.45 804.83,123.46 809.62,123.46 809.62,125.47 802.64,125.47 "/>
  <path id="7" class="fil5" d="M816.19 117.99c-0.18,-0.22 -0.42,-0.39 -0.72,-0.5 -0.3,-0.1 -0.6,-0.15 -0.86,-0.15 -0.16,0 -0.32,0.01 -0.49,0.05 -0.17,0.05 -0.32,0.1 -0.48,0.17 -0.15,0.09 -0.26,0.2 -0.36,0.32 -0.1,0.13 -0.14,0.3 -0.14,0.48 0,0.29 0.11,0.53 0.34,0.68 0.22,0.16 0.5,0.3 0.85,0.41 0.33,0.11 0.7,0.22 1.09,0.33 0.39,0.12 0.75,0.27 1.1,0.48 0.34,0.21 0.62,0.47 0.84,0.82 0.23,0.35 0.34,0.81 0.34,1.39 0,0.54 -0.1,1.03 -0.31,1.44 -0.21,0.4 -0.48,0.75 -0.82,1.02 -0.35,0.26 -0.76,0.47 -1.22,0.6 -0.46,0.13 -0.95,0.2 -1.47,0.2 -0.64,0 -1.24,-0.1 -1.79,-0.3 -0.54,-0.19 -1.06,-0.51 -1.54,-0.95l1.56 -1.7c0.22,0.29 0.5,0.53 0.85,0.68 0.33,0.17 0.68,0.25 1.05,0.25 0.18,0 0.36,-0.03 0.54,-0.07 0.18,-0.04 0.34,-0.1 0.49,-0.18 0.14,-0.08 0.25,-0.2 0.35,-0.32 0.08,-0.13 0.13,-0.28 0.13,-0.46 0,-0.29 -0.11,-0.53 -0.34,-0.71 -0.24,-0.17 -0.52,-0.31 -0.87,-0.44 -0.34,-0.12 -0.71,-0.24 -1.11,-0.36 -0.41,-0.13 -0.77,-0.28 -1.12,-0.49 -0.35,-0.21 -0.63,-0.48 -0.85,-0.81 -0.24,-0.34 -0.35,-0.78 -0.35,-1.33 0,-0.53 0.11,-0.99 0.32,-1.4 0.21,-0.4 0.49,-0.74 0.84,-1 0.35,-0.27 0.74,-0.48 1.2,-0.62 0.46,-0.13 0.92,-0.19 1.41,-0.19 0.56,0 1.1,0.08 1.62,0.23 0.52,0.16 0.99,0.42 1.41,0.8l-1.49 1.63z"/>
  <polygon id="8" class="fil5" points="821.16,117.51 818.34,117.51 818.34,115.58 826.17,115.58 826.17,117.51 823.34,117.51 823.34,125.47 821.16,125.47 "/>
  <polygon id="9" class="fil5" points="745.32,141.57 744.32,141.57 744.32,131.67 745.32,131.67 "/>
  <polygon id="10" class="fil5" points="754.3,140.06 754.32,140.06 754.32,131.67 755.33,131.67 755.33,141.57 754.07,141.57 748.17,133.1 748.14,133.1 748.14,141.57 747.14,141.57 747.14,131.67 748.4,131.67 "/>
  <polygon id="11" class="fil5" points="762.04,140.65 766.65,140.65 766.65,141.57 761.03,141.57 761.03,131.67 762.04,131.67 "/>
  <polygon id="12" class="fil5" points="768.16,141.57 767.15,141.57 767.15,131.67 768.16,131.67 "/>
  <polygon id="13" class="fil5" points="773.15,141.57 772.14,141.57 772.14,132.59 768.83,132.59 768.83,131.67 776.46,131.67 776.46,132.59 773.15,132.59 "/>
  <polygon id="14" class="fil5" points="777.13,131.67 778.14,131.67 778.14,135.96 783.53,135.96 783.53,131.67 784.54,131.67 784.54,141.57 783.53,141.57 783.53,136.89 778.14,136.89 778.14,141.57 777.13,141.57 "/>
  <path id="15" class="fil5" d="M793.43 137.88c0,0.4 -0.05,0.84 -0.14,1.3 -0.1,0.46 -0.3,0.89 -0.56,1.28 -0.27,0.4 -0.65,0.72 -1.11,0.97 -0.47,0.26 -1.07,0.39 -1.81,0.39 -0.75,0 -1.36,-0.13 -1.82,-0.39 -0.46,-0.25 -0.84,-0.57 -1.11,-0.97 -0.26,-0.39 -0.44,-0.82 -0.54,-1.28 -0.1,-0.46 -0.15,-0.9 -0.15,-1.3l0 -6.21 1 0 0 6.1c0,0.47 0.04,0.88 0.14,1.21 0.1,0.35 0.22,0.63 0.38,0.87 0.15,0.24 0.32,0.42 0.52,0.54 0.18,0.14 0.37,0.26 0.57,0.33 0.18,0.07 0.36,0.12 0.54,0.14 0.19,0.02 0.34,0.04 0.47,0.04 0.12,0 0.28,-0.02 0.46,-0.04 0.18,-0.02 0.36,-0.07 0.56,-0.14 0.18,-0.07 0.37,-0.19 0.57,-0.33 0.18,-0.12 0.36,-0.3 0.52,-0.54 0.15,-0.24 0.26,-0.52 0.36,-0.87 0.1,-0.33 0.14,-0.74 0.14,-1.21l0 -6.1 1.01 0 0 6.21z"/>
  <path id="16" class="fil5" d="M796.37 138.05l4.3 0 -2.14 -5.2 -2.16 5.2zm-1.46 3.52l-1.18 0 4.31 -9.9 0.97 0 4.31 9.9 -1.17 0 -1.09 -2.6 -5.06 0 -1.09 2.6z"/>
  <polygon id="17" class="fil5" points="810.95,140.06 810.98,140.06 810.98,131.67 811.99,131.67 811.99,141.57 810.73,141.57 804.83,133.1 804.8,133.1 804.8,141.57 803.79,141.57 803.79,131.67 805.05,131.67 "/>
  <polygon id="18" class="fil5" points="814.81,141.57 813.8,141.57 813.8,131.67 814.81,131.67 "/>
  <path id="19" class="fil5" d="M817.92 138.05l4.29 0 -2.14 -5.2 -2.15 5.2zm-1.47 3.52l-1.17 0 4.31 -9.9 0.97 0 4.31 9.9 -1.18 0 -1.09 -2.6 -5.06 0 -1.09 2.6z"/>
  <path class="fil5" d="M751.6 156.51c0,0.4 -0.05,0.77 -0.17,1.1 -0.13,0.33 -0.3,0.62 -0.53,0.87 -0.24,0.24 -0.54,0.43 -0.89,0.57 -0.35,0.14 -0.76,0.21 -1.22,0.21 -0.46,0 -0.88,-0.07 -1.23,-0.21 -0.35,-0.14 -0.64,-0.33 -0.88,-0.57 -0.23,-0.25 -0.41,-0.54 -0.53,-0.87 -0.13,-0.33 -0.18,-0.7 -0.18,-1.1l0 -4.1 1.47 0 0 4.05c0,0.2 0.04,0.39 0.1,0.57 0.07,0.18 0.15,0.33 0.28,0.46 0.12,0.13 0.26,0.23 0.43,0.3 0.16,0.07 0.34,0.11 0.54,0.11 0.2,0 0.38,-0.04 0.54,-0.11 0.16,-0.07 0.3,-0.17 0.42,-0.3 0.13,-0.13 0.22,-0.28 0.29,-0.46 0.06,-0.18 0.09,-0.37 0.09,-0.57l0 -4.05 1.47 0 0 4.1z"/>
  <path id="1" class="fil5" d="M755.09 152.41l1.22 0 2.91 6.68 -1.66 0 -0.58 -1.41 -2.59 0 -0.56 1.41 -1.63 0 2.89 -6.68zm0.57 1.94l-0.81 2.08 1.63 0 -0.82 -2.08z"/>
  <path id="2" class="fil5" d="M759.82 152.41l2.49 0c0.3,0 0.59,0.02 0.88,0.05 0.3,0.05 0.55,0.12 0.79,0.25 0.23,0.12 0.42,0.3 0.56,0.52 0.14,0.22 0.22,0.51 0.22,0.88 0,0.37 -0.1,0.69 -0.31,0.93 -0.22,0.25 -0.49,0.43 -0.84,0.54l0 0.02c0.22,0.03 0.42,0.09 0.6,0.18 0.18,0.09 0.33,0.2 0.47,0.35 0.12,0.14 0.22,0.31 0.29,0.5 0.06,0.19 0.1,0.38 0.1,0.6 0,0.35 -0.07,0.64 -0.22,0.88 -0.16,0.24 -0.35,0.43 -0.59,0.58 -0.24,0.14 -0.51,0.24 -0.8,0.31 -0.31,0.06 -0.61,0.09 -0.9,0.09l-2.74 0 0 -6.68zm1.48 2.67l1.06 0c0.12,0 0.23,-0.01 0.34,-0.04 0.11,-0.03 0.21,-0.07 0.29,-0.12 0.09,-0.06 0.16,-0.13 0.22,-0.23 0.05,-0.09 0.08,-0.21 0.08,-0.34 0,-0.14 -0.03,-0.25 -0.09,-0.35 -0.06,-0.08 -0.14,-0.16 -0.23,-0.21 -0.1,-0.04 -0.2,-0.08 -0.32,-0.11 -0.13,-0.02 -0.24,-0.03 -0.35,-0.03l-1 0 0 1.43zm0 2.76l1.32 0c0.11,0 0.22,-0.01 0.35,-0.03 0.11,-0.03 0.21,-0.07 0.31,-0.13 0.09,-0.07 0.17,-0.15 0.23,-0.25 0.06,-0.1 0.09,-0.23 0.09,-0.37 0,-0.16 -0.04,-0.28 -0.11,-0.39 -0.09,-0.09 -0.18,-0.17 -0.31,-0.21 -0.12,-0.05 -0.24,-0.09 -0.38,-0.11 -0.14,-0.02 -0.27,-0.02 -0.39,-0.02l-1.11 0 0 1.51z"/>
  <path id="3" class="fil5" d="M769.25 152.41l1.21 0 -0.7 2.66 -1.36 0 0.85 -2.66zm2.02 0l1.21 0 -0.7 2.66 -1.36 0 0.85 -2.66z"/>
  <polygon id="4" class="fil5" points="773.49,152.41 774.96,152.41 774.96,159.09 773.49,159.09 "/>
  <polygon id="5" class="fil5" points="776.23,152.41 778.46,152.41 780,156.77 780.02,156.77 781.57,152.41 783.79,152.41 783.79,159.09 782.31,159.09 782.31,153.96 782.3,153.96 780.54,159.09 779.41,159.09 777.72,153.96 777.71,153.96 777.71,159.09 776.23,159.09 "/>
  <path id="6" class="fil5" d="M787.28 152.41l1.21 0 2.91 6.68 -1.66 0 -0.57 -1.41 -2.6 0 -0.56 1.41 -1.62 0 2.89 -6.68zm0.56 1.94l-0.81 2.08 1.64 0 -0.83 -2.08z"/>
  <path id="7" class="fil5" d="M798.06 158.62c-0.44,0.23 -0.89,0.39 -1.36,0.49 -0.47,0.1 -0.96,0.15 -1.45,0.15 -0.52,0 -1,-0.08 -1.44,-0.24 -0.45,-0.16 -0.82,-0.4 -1.14,-0.71 -0.32,-0.31 -0.57,-0.67 -0.75,-1.11 -0.18,-0.43 -0.27,-0.91 -0.27,-1.45 0,-0.54 0.09,-1.02 0.27,-1.46 0.18,-0.43 0.43,-0.8 0.75,-1.11 0.32,-0.3 0.69,-0.54 1.14,-0.7 0.44,-0.16 0.92,-0.24 1.44,-0.24 0.54,0 1.03,0.06 1.48,0.19 0.45,0.13 0.85,0.35 1.19,0.67l-1.04 1.13c-0.2,-0.21 -0.43,-0.37 -0.68,-0.47 -0.26,-0.11 -0.57,-0.17 -0.95,-0.17 -0.31,0 -0.59,0.06 -0.85,0.17 -0.25,0.1 -0.48,0.25 -0.66,0.44 -0.18,0.2 -0.32,0.43 -0.41,0.69 -0.11,0.26 -0.15,0.55 -0.15,0.86 0,0.31 0.04,0.6 0.15,0.86 0.09,0.26 0.23,0.49 0.41,0.68 0.18,0.2 0.41,0.35 0.66,0.45 0.26,0.1 0.54,0.16 0.85,0.16 0.32,0 0.6,-0.04 0.83,-0.11 0.24,-0.07 0.42,-0.14 0.56,-0.22l0 -1.09 -1.2 0 0 -1.36 2.62 0 0 3.5z"/>
  <polygon id="8" class="fil5" points="799.26,152.41 800.73,152.41 800.73,159.09 799.26,159.09 "/>
  <path id="9" class="fil5" d="M805.31 154.04c-0.12,-0.15 -0.28,-0.27 -0.48,-0.34 -0.21,-0.07 -0.41,-0.11 -0.59,-0.11 -0.1,0 -0.21,0.02 -0.33,0.04 -0.11,0.03 -0.21,0.07 -0.32,0.12 -0.1,0.05 -0.18,0.13 -0.24,0.21 -0.07,0.09 -0.1,0.2 -0.1,0.32 0,0.2 0.08,0.36 0.23,0.47 0.15,0.1 0.34,0.2 0.57,0.27 0.23,0.08 0.48,0.15 0.74,0.23 0.27,0.07 0.51,0.18 0.75,0.32 0.22,0.14 0.41,0.32 0.56,0.56 0.15,0.23 0.23,0.54 0.23,0.93 0,0.37 -0.07,0.7 -0.21,0.97 -0.14,0.28 -0.32,0.51 -0.55,0.69 -0.24,0.18 -0.51,0.32 -0.83,0.41 -0.31,0.08 -0.64,0.13 -0.99,0.13 -0.43,0 -0.84,-0.07 -1.21,-0.2 -0.37,-0.13 -0.71,-0.35 -1.03,-0.64l1.04 -1.15c0.15,0.2 0.34,0.36 0.58,0.46 0.23,0.11 0.46,0.17 0.71,0.17 0.12,0 0.24,-0.02 0.37,-0.04 0.12,-0.03 0.22,-0.07 0.33,-0.13 0.09,-0.05 0.17,-0.13 0.23,-0.22 0.06,-0.08 0.09,-0.18 0.09,-0.31 0,-0.2 -0.08,-0.36 -0.23,-0.48 -0.16,-0.11 -0.35,-0.21 -0.58,-0.29 -0.24,-0.09 -0.49,-0.16 -0.76,-0.25 -0.27,-0.08 -0.52,-0.19 -0.76,-0.33 -0.23,-0.14 -0.42,-0.32 -0.57,-0.55 -0.16,-0.22 -0.24,-0.52 -0.24,-0.89 0,-0.36 0.08,-0.67 0.22,-0.95 0.14,-0.27 0.33,-0.5 0.57,-0.68 0.23,-0.17 0.5,-0.32 0.81,-0.41 0.31,-0.09 0.62,-0.13 0.95,-0.13 0.38,0 0.75,0.05 1.1,0.16 0.35,0.1 0.67,0.28 0.95,0.53l-1.01 1.11z"/>
  <polygon id="10" class="fil5" points="810.21,152.41 811.68,152.41 811.68,157.73 814.41,157.73 814.41,159.09 810.21,159.09 "/>
  <polygon id="11" class="fil5" points="815.58,153.71 813.67,153.71 813.67,152.41 818.96,152.41 818.96,153.71 817.05,153.71 817.05,159.09 815.58,159.09 "/>
  <path id="12" class="fil5" d="M822.6 155.07l-1.21 0 0.7 -2.66 1.36 0 -0.85 2.66zm-2.02 0l-1.21 0 0.7 -2.66 1.36 0 -0.85 2.66z"/>
  <line class="fil3 str1" x1="731.83" y1="146.16" x2="731.83" y2= "111.06" />
  <polyline class="fil3 str1" points="835.43,146.16 835.43,100.89 730.13,101.17 "/>
  <polyline class="fil3 str1" points="731.83,101.79 731.83,68.74 757.37,83.2 783.14,56.1 808.92,83.26 835.36,67.74 835.38,86.84 "/>
  <polyline class="fil3 str1" points="733.66,162.44 783.82,193.02 832.49,161.6 "/>
 </g>
</svg>
